<?xml version="1.0" encoding="UTF-8" standalone="no"?>
<svg
   xmlns:dc="http://purl.org/dc/elements/1.1/"
   xmlns:cc="http://creativecommons.org/ns#"
   xmlns:rdf="http://www.w3.org/1999/02/22-rdf-syntax-ns#"
   xmlns:svg="http://www.w3.org/2000/svg"
   xmlns="http://www.w3.org/2000/svg"
   viewBox="0 0 415.22266 165.98132"
   height="165.98132"
   width="415.22266"
   xml:space="preserve"
   id="svg2"
   version="1.1"><metadata
     id="metadata8"><rdf:RDF><cc:Work
         rdf:about=""><dc:format>image/svg+xml</dc:format><dc:type
           rdf:resource="http://purl.org/dc/dcmitype/StillImage" /></cc:Work></rdf:RDF></metadata><defs
     id="defs6"><clipPath
       id="clipPath18"
       clipPathUnits="userSpaceOnUse"><path
         id="path16"
         d="M 0,124.486 H 311.417 V 0 H 0 Z" /></clipPath></defs><g
     transform="matrix(1.3333333,0,0,-1.3333333,0,165.98133)"
     id="g10"><g
       id="g12"><g
         clip-path="url(#clipPath18)"
         id="g14"><g
           transform="translate(77.4759,56.6252)"
           id="g20"><path
             id="path22"
             style="fill:#1d1d1b;fill-opacity:1;fill-rule:nonzero;stroke:none"
             d="m 0,0 c 0,1.943 0.68,3.594 2.04,4.955 1.36,1.36 3.012,2.04 4.955,2.04 1.943,0 3.595,-0.68 4.956,-2.04 1.36,-1.361 2.04,-3.012 2.04,-4.955 v -26.632 c 0,-2.332 0.816,-4.314 2.448,-5.946 1.633,-1.632 3.615,-2.448 5.947,-2.448 h 4.197 c 2.332,0 4.314,0.816 5.946,2.448 1.632,1.632 2.448,3.614 2.448,5.946 v 25.233 c 0,2.332 -0.816,4.314 -2.448,5.946 -1.632,1.632 -3.614,2.448 -5.946,2.448 h -4.197 c -2.332,0 -4.314,0.817 -5.947,2.449 -1.632,1.632 -2.448,3.614 -2.448,5.946 v 4.197 c 0,2.332 -0.816,4.314 -2.448,5.947 -1.633,1.632 -3.615,2.448 -5.947,2.448 H 1.399 c -2.332,0 -4.314,-0.816 -5.946,-2.448 -1.632,-1.633 -2.448,-3.615 -2.448,-5.947 v -5.596 c 0,-1.944 -0.681,-3.595 -2.041,-4.955 -1.361,-1.361 -3.012,-2.041 -4.955,-2.041 -1.944,0 -3.595,0.68 -4.955,2.041 -1.361,1.36 -2.04,3.011 -2.04,4.955 v 5.596 c 0,2.332 -0.817,4.314 -2.449,5.947 -1.632,1.632 -3.614,2.448 -5.946,2.448 h -18.188 c -2.332,0 -4.314,-0.816 -5.946,-2.448 -1.633,-1.633 -2.449,-3.615 -2.449,-5.947 v -46.17 c 0,-2.332 0.816,-4.314 2.449,-5.946 1.632,-1.632 3.614,-2.448 5.946,-2.448 h 4.197 c 2.332,0 4.314,0.816 5.946,2.448 1.632,1.632 2.449,3.614 2.449,5.946 V 0 c 0,1.943 0.679,3.594 2.04,4.955 1.36,1.36 3.011,2.04 4.955,2.04 1.943,0 3.594,-0.68 4.955,-2.04 1.36,-1.361 2.041,-3.012 2.041,-4.955 v -26.583 c 0,-2.332 0.816,-4.314 2.448,-5.946 1.632,-1.632 3.614,-2.448 5.946,-2.448 h 4.197 c 2.332,0 4.314,0.816 5.947,2.448 1.632,1.632 2.448,3.614 2.448,5.946 z" /></g><g
           transform="translate(153.99,21.6476)"
           id="g24"><path
             id="path26"
             style="fill:#1d1d1b;fill-opacity:1;fill-rule:nonzero;stroke:none"
             d="m 0,0 v 0 h -4.484 c -2.391,0 -4.484,0.897 -6.278,2.69 -1.794,1.794 -2.69,3.885 -2.69,6.278 v 13.453 c 0,2.511 -0.866,4.632 -2.601,6.367 -1.732,1.732 -3.856,2.601 -6.368,2.601 h -4.484 c -2.39,0 -4.484,0.891 -6.277,2.673 -1.794,1.783 -2.691,3.865 -2.691,6.245 v 4.7 c 0,2.497 0.897,4.608 2.691,6.331 1.793,1.724 3.887,2.587 6.277,2.587 h 4.484 c 2.512,0 4.636,-0.863 6.368,-2.587 1.735,-1.723 2.601,-3.834 2.601,-6.331 v -6.181 c 0,-2.38 0.896,-4.462 2.69,-6.244 1.794,-1.783 3.887,-2.674 6.278,-2.674 H 0 c 2.511,0 4.635,-0.869 6.367,-2.601 1.735,-1.735 2.601,-3.856 2.601,-6.367 V 8.968 C 8.968,6.575 8.287,4.154 5.914,2.077 3.541,0 0,0 0,0" /></g><g
           transform="translate(127.1313,80.7276)"
           id="g28"><path
             id="path30"
             style="fill:#1d1d1b;fill-opacity:1;fill-rule:nonzero;stroke:none"
             d="m 0,0 c -2.472,0 -4.573,0.865 -6.303,2.595 -1.73,1.731 -2.595,3.832 -2.595,6.303 v 4.449 c 0,2.472 0.865,4.573 2.595,6.303 1.73,1.731 3.831,2.596 6.303,2.596 h 4.449 c 2.472,0 4.573,-0.865 6.303,-2.596 1.73,-1.73 2.595,-3.831 2.595,-6.303 V 8.898 C 13.347,6.427 12.482,4.326 10.752,2.595 9.022,0.865 6.921,0 4.449,0 Z" /></g><g
           transform="translate(211.5061,48.1718)"
           id="g32"><path
             id="path34"
             style="fill:#1d1d1b;fill-opacity:1;fill-rule:nonzero;stroke:none"
             d="m 0,0 c -2.39,0 -4.422,0.837 -6.095,2.51 -1.673,1.673 -2.51,3.705 -2.51,6.095 v 9.897 c 0,2.39 0.837,4.422 2.51,6.095 1.673,1.673 3.705,2.51 6.095,2.51 h 4.302 c 2.391,0 4.422,-0.837 6.095,-2.51 1.674,-1.673 2.51,-3.705 2.51,-6.095 V 8.605 c 0,-2.39 -0.836,-4.422 -2.51,-6.095 C 8.724,0.837 6.693,0 4.302,0 Z" /></g><g
           transform="translate(276.9982,48.1718)"
           id="g36"><path
             id="path38"
             style="fill:#1d1d1b;fill-opacity:1;fill-rule:nonzero;stroke:none"
             d="m 0,0 c -2.39,0 -4.422,0.837 -6.095,2.51 -1.673,1.673 -2.51,3.705 -2.51,6.095 v 9.897 c 0,2.39 0.837,4.422 2.51,6.095 1.673,1.673 3.705,2.51 6.095,2.51 h 4.302 c 2.391,0 4.422,-0.837 6.095,-2.51 1.674,-1.673 2.51,-3.705 2.51,-6.095 V 8.605 c 0,-2.39 -0.836,-4.422 -2.51,-6.095 C 8.724,0.837 6.693,0 4.302,0 Z" /></g><g
           transform="translate(179.3348,42.5647)"
           id="g40"><path
             id="path42"
             style="fill:#1d1d1b;fill-opacity:1;fill-rule:nonzero;stroke:none"
             d="m 0,0 c 2.339,0 4.327,-0.819 5.965,-2.456 1.637,-1.637 2.456,-3.626 2.456,-5.965 v -4.21 c 0,-2.339 0.818,-4.327 2.456,-5.965 1.637,-1.637 3.625,-2.456 5.964,-2.456 h 19.817 c 2.339,0 4.327,0.819 5.964,2.456 1.638,1.638 2.456,3.626 2.456,5.965 v 4.21 c 0,2.339 -0.818,4.328 -2.456,5.965 C 40.985,-0.819 38.997,0 36.658,0 H 16.841 C 14.502,0 12.514,0.819 10.877,2.456 9.239,4.093 8.421,6.082 8.421,8.421 v 15.984 c 0,2.339 -0.819,4.328 -2.456,5.965 C 4.327,32.007 2.339,32.826 0,32.826 h -4.21 c -2.339,0 -4.328,-0.819 -5.965,-2.456 -1.637,-1.637 -2.456,-3.626 -2.456,-5.965 V 8.421 c 0,-2.339 0.819,-4.328 2.456,-5.965 C -8.538,0.819 -6.549,0 -4.21,0 Z" /></g><g
           transform="translate(244.8269,42.5647)"
           id="g44"><path
             id="path46"
             style="fill:#1d1d1b;fill-opacity:1;fill-rule:nonzero;stroke:none"
             d="m 0,0 c 2.339,0 4.327,-0.819 5.965,-2.456 1.637,-1.637 2.456,-3.626 2.456,-5.965 v -4.21 c 0,-2.339 0.818,-4.327 2.456,-5.965 1.637,-1.637 3.625,-2.456 5.964,-2.456 h 19.817 c 2.339,0 4.327,0.819 5.964,2.456 1.638,1.638 2.456,3.626 2.456,5.965 v 4.21 c 0,2.339 -0.818,4.328 -2.456,5.965 C 40.985,-0.819 38.997,0 36.658,0 H 16.841 C 14.502,0 12.514,0.819 10.877,2.456 9.239,4.093 8.421,6.082 8.421,8.421 v 15.984 c 0,2.339 -0.819,4.328 -2.456,5.965 C 4.327,32.007 2.339,32.826 0,32.826 h -4.21 c -2.339,0 -4.328,-0.819 -5.965,-2.456 -1.637,-1.637 -2.456,-3.626 -2.456,-5.965 V 8.421 c 0,-2.339 0.819,-4.328 2.456,-5.965 C -8.538,0.819 -6.549,0 -4.21,0 Z" /></g></g></g></g></svg>