<svg class="store-logo tiktok" xmlns="http://www.w3.org/2000/svg" viewBox="0 0 500 145.69">
    <path fill="#fff" d="M541.7,1665.13V1660A33.4,33.4,0,0,1,524,1655c.21.23.45.45.67.68-.22-.23-.46-.45-.67-.68a33.35,33.35,0,0,1-8.65-19.54v-3.08h-6.64c-.16-.91-.29-1.82-.37-2.74v-3.08H484.23v95.61a20.26,20.26,0,0,1-29.36,18h0a20.24,20.24,0,0,1-3.77-33.7,20.24,20.24,0,0,0,3.77,33.7A20.24,20.24,0,0,1,471,1707.67a20.34,20.34,0,0,1,6.14.95v-24.48a45.57,45.57,0,0,0-7-.4v-5.42a44.25,44.25,0,0,0-30.72,80.59h0A44.27,44.27,0,0,0,515.33,1728v-48.85a57.23,57.23,0,0,0,33.38,10.67v-23.94a33.64,33.64,0,0,1-7-.73Zm-71.58,18.61h0v19h0Zm.87,64.41a20.14,20.14,0,0,1-12.07-4,20.22,20.22,0,0,0,27.9-3.66A20.19,20.19,0,0,1,471,1748.15ZM541.7,1684a57.23,57.23,0,0,1-33.38-10.67h0A57.23,57.23,0,0,0,541.7,1684Z" transform="translate(-419.78 -1626.54)"/>
    <path fill="#fff" d="M820.84,1683.52h-4.77A31.56,31.56,0,0,1,847.75,1715a31.56,31.56,0,0,0-31.68-31.43h-5.21a31.43,31.43,0,1,0,0,62.85h5.21a31.63,31.63,0,0,0,31.33-26.74,31.62,31.62,0,0,1-31.33,26.74h4.77a31.43,31.43,0,1,0,0-62.85Zm-36.66,27.68a31.16,31.16,0,0,1,4.7-13.08A31.16,31.16,0,0,0,784.18,1711.2Zm31.67,19A15.28,15.28,0,1,1,831.26,1715,15.34,15.34,0,0,1,815.85,1730.23Z" transform="translate(-419.78 -1626.54)"/>
    <polygon fill="#fff" points="300.82 60.43 278.69 60.43 260.47 78.51 260.47 42.79 242.25 42.79 242.25 119.4 260.47 119.4 260.47 99.6 266.12 94.43 283.9 119.83 303.43 119.83 277.82 82.81 300.82 60.43"/>
    <polygon fill="#fff" points="365.48 42.79 307.77 42.79 307.77 58.71 326.43 58.71 326.43 119.4 345.09 119.4 345.09 59.14 360.28 59.14 365.48 42.79"/>
    <polygon fill="#fff" points="474.4 82.81 497.39 60.43 475.27 60.43 457.04 78.51 457.04 42.79 438.81 42.79 438.81 119.4 457.04 119.4 457.04 99.6 462.68 94.43 480.47 119.83 500 119.83 474.4 82.81"/>
    <rect fill="#fff" x="216.22" y="67.32" width="18.22" height="52.08"/>
    <polygon fill="#fff" points="155.03 58.71 173.69 58.71 173.69 119.4 192.35 119.4 192.35 59.14 207.54 59.14 212.74 42.79 155.03 42.79 155.03 58.71"/>
    <path fill="#fff" d="M645.1,1669.32a9,9,0,1,0,9.11,9A9.08,9.08,0,0,0,645.1,1669.32Z" transform="translate(-419.78 -1626.54)"/>
</svg>